<svg id="Layer_1" data-name="Layer 1" xmlns="http://www.w3.org/2000/svg" xmlns:xlink="http://www.w3.org/1999/xlink" viewBox="0 0 16 16"><defs><style>.cls-1{fill:none;}.cls-2{opacity:0.6;}.cls-3{clip-path:url(#clip-path);}</style><clipPath id="clip-path"><rect class="cls-1" width="16" height="16"/></clipPath></defs><title>Artboard 1</title><g class="cls-2"><g class="cls-3"><path d="M15,0H9.51a1,1,0,0,0,0,2h3.12L7.43,7.18A1,1,0,1,0,8.82,8.57L14,3.37V6.49a1,1,0,0,0,2,0V1A1,1,0,0,0,15,0Z"/><path d="M11.33,14.31H1.69V4.67H8.94L10.63,3H.85A.85.85,0,0,0,0,3.82V15.15A.85.85,0,0,0,.85,16H12.18a.85.85,0,0,0,.85-.85V5.37l-1.7,1.69Z"/></g></g></svg>