<svg id="Layer_1" data-name="Layer 1" xmlns="http://www.w3.org/2000/svg" viewBox="0 0 45 45"><defs><style>.cls-1{fill:#fbcf00;}</style></defs><title>Artboard 1</title><path class="cls-1" d="M23.46,6.7a17,17,0,0,1,6.31,1.2,16.42,16.42,0,0,1,5.35,3.42L23.46,22.5,35.12,33.67a16.72,16.72,0,0,1-6.87,3.95,17.31,17.31,0,0,1-8,.38A17,17,0,0,1,13,34.72a16,16,0,0,1-4.77-6.17A15.25,15.25,0,0,1,7.07,21a15.4,15.4,0,0,1,2.69-7.23A16.37,16.37,0,0,1,15.7,8.56,17.07,17.07,0,0,1,23.46,6.7Zm0-6.7A24.24,24.24,0,0,0,12.4,2.66,23,23,0,0,0,4,10,21.85,21.85,0,0,0,.11,20.29,21.62,21.62,0,0,0,1.79,31.11a22.39,22.39,0,0,0,6.79,8.78,23.85,23.85,0,0,0,10.3,4.68A24.51,24.51,0,0,0,30.27,44a23.73,23.73,0,0,0,9.78-5.62L45,33.67l-4.94-4.74-6.7-6.43,6.71-6.44L45,11.33,40.06,6.56a23.32,23.32,0,0,0-7.61-4.87A24.17,24.17,0,0,0,23.46,0Z"/></svg>