<svg id="Layer_1" data-name="Layer 1" xmlns="http://www.w3.org/2000/svg" viewBox="0 0 81.2 92.51"><defs><style>.cls-1{fill:none;}.cls-2{fill:#7100fe;}</style></defs><title>Artboard 1</title><path class="cls-1" d="M64.34,21.7A24.93,24.93,0,0,0,22.6,24.81L16,36.24,26,42l6.51,15.56,19.19-2.46,4.62,11,9.46-16.4a24.94,24.94,0,0,0-1.41-28Z"/><path class="cls-2" d="M80.05,27.52A36.66,36.66,0,0,0,12.45,19L0,40.53l16.67,9.62,8.45,20.18,19.19-2.46,10.3,24.64L75.92,55.6a36.7,36.7,0,0,0,4.13-28.08ZM69.12,40.45a24.88,24.88,0,0,1-3.37,9.28l-9.46,16.4-4.62-11L32.48,57.54,26,42,16,36.24,22.6,24.81A24.92,24.92,0,0,1,69.12,40.45Z"/></svg>