<svg id="Layer_1" data-name="Layer 1" xmlns="http://www.w3.org/2000/svg" viewBox="0 0 1296 163"><defs><style>.cls-1{fill:#d9c6f2;}.cls-2,.cls-3{fill:none;}.cls-2{stroke:#00a1fb;stroke-width:4px;}.cls-3{stroke:#b5bec2;stroke-width:2px;}</style></defs><title>Artboard 1</title><path class="cls-1" d="M14.77,147.81a3.09,3.09,0,0,0,1.86,4l1.19.44a1.84,1.84,0,1,1-1.26,3.45l-1.19-.44a3.12,3.12,0,0,0-4,1.86l-.51,1.39a1.9,1.9,0,1,1-3.58-1.3l.51-1.39a3.11,3.11,0,0,0-1.86-4l-1.19-.44A1.83,1.83,0,1,1,6,147.93l1.2.44a3.12,3.12,0,0,0,4-1.86l.5-1.39a1.91,1.91,0,0,1,3.59,1.3Z"/><circle class="cls-2" cx="1171.57" cy="15" r="13"/><circle class="cls-3" cx="154.56" cy="78" r="9"/></svg>