<svg width="1095" height="474" viewBox="0 0 1095 474" fill="none" xmlns="http://www.w3.org/2000/svg">
<path d="M1080.23 332.596C1080.82 330.984 1079.99 329.201 1078.37 328.615L1077.18 328.18C1076.23 327.833 1075.74 326.78 1076.08 325.828C1076.43 324.875 1077.48 324.384 1078.44 324.731L1079.63 325.165C1081.24 325.752 1083.02 324.921 1083.61 323.309L1084.12 321.916C1084.48 320.927 1085.57 320.417 1086.56 320.777C1087.55 321.137 1088.06 322.23 1087.7 323.22L1087.19 324.613C1086.61 326.225 1087.44 328.007 1089.05 328.594L1090.24 329.028C1091.2 329.375 1091.69 330.428 1091.34 331.381C1090.99 332.333 1089.94 332.825 1088.99 332.478L1087.79 332.043C1086.18 331.456 1084.4 332.288 1083.81 333.9L1083.31 335.293C1082.95 336.282 1081.85 336.792 1080.86 336.432C1079.87 336.072 1079.36 334.978 1079.72 333.989L1080.23 332.596Z" fill="#D9C6F2"/>
<rect x="19.9463" y="5.6798" width="2.82759" height="7.77586" rx="1.41379" transform="rotate(40 19.9463 5.6798)" fill="#DC7BEB"/>
<rect x="23.2012" y="19.9461" width="2.82759" height="7.77586" rx="1.41379" transform="rotate(130 23.2012 19.9461)" fill="#DC7BEB"/>
<rect x="11.7671" y="15.4271" width="2.82759" height="7.77586" rx="1.41379" transform="rotate(40 11.7671 15.4271)" fill="#DC7BEB"/>
<rect x="13.4541" y="11.7672" width="2.82759" height="7.77586" rx="1.41379" transform="rotate(130 13.4541 11.7672)" fill="#DC7BEB"/>
<rect x="125.439" y="57.3316" width="2.78571" height="3.71429" rx="1.39286" transform="rotate(-90 125.439 57.3316)" fill="#C0C0C0"/>
<rect x="134.725" y="57.3316" width="2.78571" height="3.71429" rx="1.39286" transform="rotate(-90 134.725 57.3316)" fill="#C0C0C0"/>
<rect x="128.328" y="61.5199" width="2.78571" height="3.71429" rx="1.39286" transform="rotate(-135 128.328 61.5199)" fill="#C0C0C0"/>
<rect x="134.894" y="54.9539" width="2.78571" height="3.71429" rx="1.39286" transform="rotate(-135 134.894 54.9539)" fill="#C0C0C0"/>
<rect x="130.546" y="49.4388" width="2.78571" height="3.71429" rx="1.39286" fill="#C0C0C0"/>
<rect x="130.546" y="58.7245" width="2.78571" height="3.71429" rx="1.39286" fill="#C0C0C0"/>
<rect x="126.358" y="52.3274" width="2.78571" height="3.71429" rx="1.39286" transform="rotate(-45 126.358 52.3274)" fill="#C0C0C0"/>
<rect x="132.924" y="58.8934" width="2.78571" height="3.71429" rx="1.39286" transform="rotate(-45 132.924 58.8934)" fill="#C0C0C0"/>
<circle cx="994.438" cy="467.409" r="6" fill="#FBCF00"/>
<circle cx="123.439" cy="146.439" r="13" stroke="#00A1FB" stroke-width="4"/>
<circle cx="910.438" cy="402.409" r="9" stroke="#B5BEC2" stroke-width="2"/>
</svg>
