<svg width="173" height="49" viewBox="0 0 173 49" fill="none" xmlns="http://www.w3.org/2000/svg">
<path d="M171.526 19.5582C170.659 15.9087 168.521 12.698 165.503 10.5159C162.561 8.42006 159.04 7.31828 155.443 7.36781H139.69V10.047H144.323L143.662 42.1976H153.126C155.192 42.1962 157.253 41.9943 159.281 41.5948C161.521 41.2421 163.65 40.3711 165.503 39.0495C167.183 37.8622 168.607 36.3414 169.688 34.5796C170.769 32.8178 171.484 30.8519 171.791 28.8015C171.857 28.2657 172.717 23.4431 171.526 19.5582ZM169.408 27.261C168.746 32.1505 166.893 34.7628 164.51 36.6382C163.584 37.375 159.48 39.5184 152.663 39.5184H146.971V10.047H155.575C158.784 9.99291 161.923 11.0046 164.51 12.9272C165.757 13.8332 166.815 14.9804 167.622 16.3025C168.428 17.6247 168.968 19.0955 169.209 20.6299C170.07 24.7827 169.408 27.261 169.408 27.261Z" fill="#3AB2B4"/>
<path d="M110.834 6.02832C101.171 6.02832 93.2949 14.1329 93.2949 24.113C93.2949 34.0931 101.171 42.1977 110.834 42.1977C120.497 42.1977 128.373 34.0931 128.373 24.113C128.373 14.1329 120.497 6.02832 110.834 6.02832ZM110.834 39.5185C106.842 39.4703 103.032 37.8211 100.24 34.9328C97.4478 32.0446 95.9022 28.1533 95.9424 24.113C95.8988 22.1061 96.2518 20.1105 96.9806 18.2435C97.7094 16.3764 98.7993 14.6755 100.186 13.2405C101.574 11.8056 103.23 10.6654 105.058 9.88703C106.887 9.10864 108.851 8.70768 110.834 8.70768C112.818 8.70768 114.781 9.10864 116.61 9.88703C118.438 10.6654 120.095 11.8056 121.482 13.2405C122.869 14.6755 123.959 16.3764 124.688 18.2435C125.417 20.1105 125.77 22.1061 125.726 24.113C125.766 28.1533 124.221 32.0446 121.429 34.9328C118.637 37.8211 114.826 39.4703 110.834 39.5185Z" fill="#3AB2B4"/>
<path d="M61.7891 9.91316V7.56885H68.2753L79.6592 37.777L89.918 9.91316H85.8145V7.56885H96.9337V9.91316H92.2345L80.5858 42.1977H78.2031L66.2235 9.91316H61.7891Z" fill="#3AB2B4"/>
<path d="M135.365 6.95557V42.1975H132.535V6.95557H135.365Z" fill="#3AB2B4"/>
<path d="M0 0V24.5424H1.48485V1.48485L47.5152 1.69697V47.5152L24.3727 47.4091V48.8939L49 49V0.212121L0 0Z" fill="url(#paint0_linear)"/>
<path d="M11.666 13.7878V12.0908H16.3327L24.6054 33.7272L32.0297 13.7878H29.06V12.0908H37.1206V13.7878H33.7266L25.2418 36.909H23.5448L14.8478 13.7878H11.666Z" fill="url(#paint1_linear)"/>
<defs>
<linearGradient id="paint0_linear" x1="24.5" y1="-0.00330909" x2="24.5" y2="49.0033" gradientUnits="userSpaceOnUse">
<stop stop-color="#2FEA9C"/>
<stop offset="0.9883" stop-color="#33B8B6"/>
</linearGradient>
<linearGradient id="paint1_linear" x1="24.3933" y1="12.0908" x2="24.3933" y2="36.909" gradientUnits="userSpaceOnUse">
<stop stop-color="#2FEA9C"/>
<stop offset="0.9883" stop-color="#33B8B6"/>
</linearGradient>
</defs>
</svg>
