<svg width="1296" height="163" viewBox="0 0 1296 163" fill="none" xmlns="http://www.w3.org/2000/svg">
<path d="M14.7694 147.813C14.1827 149.425 15.0139 151.207 16.6259 151.794L17.8199 152.229C18.7725 152.575 19.2636 153.629 18.9169 154.581C18.5702 155.534 17.517 156.025 16.5644 155.678L15.3704 155.243C13.7584 154.657 11.976 155.488 11.3892 157.1L10.8822 158.493C10.5222 159.482 9.42842 159.992 8.43924 159.632C7.45006 159.272 6.94003 158.178 7.30007 157.189L7.8071 155.796C8.39382 154.184 7.56266 152.402 5.95066 151.815L4.75662 151.38C3.80407 151.034 3.31294 149.98 3.65963 149.028C4.00633 148.075 5.05957 147.584 6.01212 147.931L7.20617 148.365C8.81817 148.952 10.6006 148.121 11.1873 146.509L11.6943 145.116C12.0544 144.127 13.1481 143.617 14.1373 143.977C15.1265 144.337 15.6365 145.431 15.2765 146.42L14.7694 147.813Z" fill="#D9C6F2"/>
<rect x="1275.06" y="155.761" width="2.82759" height="7.77586" rx="1.41379" transform="rotate(-140 1275.06 155.761)" fill="#DC7BEB"/>
<rect x="1271.8" y="141.494" width="2.82759" height="7.77586" rx="1.41379" transform="rotate(-50 1271.8 141.494)" fill="#DC7BEB"/>
<rect x="1283.24" y="146.013" width="2.82759" height="7.77586" rx="1.41379" transform="rotate(-140 1283.24 146.013)" fill="#DC7BEB"/>
<rect x="1281.55" y="149.673" width="2.82759" height="7.77586" rx="1.41379" transform="rotate(-50 1281.55 149.673)" fill="#DC7BEB"/>
<rect x="1169.57" y="104.109" width="2.78571" height="3.71429" rx="1.39286" transform="rotate(90 1169.57 104.109)" fill="#C0C0C0"/>
<rect x="1160.28" y="104.109" width="2.78571" height="3.71429" rx="1.39286" transform="rotate(90 1160.28 104.109)" fill="#C0C0C0"/>
<rect x="1166.68" y="99.9204" width="2.78571" height="3.71429" rx="1.39286" transform="rotate(45 1166.68 99.9204)" fill="#C0C0C0"/>
<rect x="1160.11" y="106.486" width="2.78571" height="3.71429" rx="1.39286" transform="rotate(45 1160.11 106.486)" fill="#C0C0C0"/>
<rect x="1164.46" y="112.001" width="2.78571" height="3.71429" rx="1.39286" transform="rotate(180 1164.46 112.001)" fill="#C0C0C0"/>
<rect x="1164.46" y="102.716" width="2.78571" height="3.71429" rx="1.39286" transform="rotate(180 1164.46 102.716)" fill="#C0C0C0"/>
<rect x="1168.65" y="109.113" width="2.78571" height="3.71429" rx="1.39286" transform="rotate(135 1168.65 109.113)" fill="#C0C0C0"/>
<rect x="1162.08" y="102.547" width="2.78571" height="3.71429" rx="1.39286" transform="rotate(135 1162.08 102.547)" fill="#C0C0C0"/>
<circle cx="70.561" cy="13.0007" r="6" transform="rotate(180 70.561 13.0007)" fill="#FBCF00"/>
<circle cx="1171.57" cy="15.002" r="13" transform="rotate(180 1171.57 15.002)" stroke="#00A1FB" stroke-width="4"/>
<circle cx="154.561" cy="78.0002" r="9" transform="rotate(180 154.561 78.0002)" stroke="#B5BEC2" stroke-width="2"/>
</svg>
