<svg id="Layer_1" data-name="Layer 1" xmlns="http://www.w3.org/2000/svg" viewBox="0 0 291.14 264.31"><defs><style>.cls-1{fill:#f9d00e;}</style></defs><title>Artboard 1</title><path class="cls-1" d="M259.71,77c-12.63-25.42-19.49-56.6-44.39-70.2-24.75-13.51-54.67-3.45-82.55.89-26.37,4.1-52.74,8-74.49,23.54C34.54,48.14,13.86,70.38,5.57,98.33-3.11,127.61-2.14,160.4,12,187.47c13.69,26.27,41.76,40.05,68,53.72,25.12,13.08,51.28,23.37,79.61,23.11,30.63-.28,62.32-5.45,86.22-24.64,24.65-19.79,42.4-49.29,45.09-80.78C293.47,129,273,103.81,259.71,77Z"/></svg>