<svg id="Layer_1" data-name="Layer 1" xmlns="http://www.w3.org/2000/svg" xmlns:xlink="http://www.w3.org/1999/xlink" viewBox="0 0 563.63 418"><defs><style>.cls-1{fill:url(#linear-gradient);}.cls-2{fill:url(#linear-gradient-2);}</style><linearGradient id="linear-gradient" x1="281.82" y1="88" x2="281.82" gradientTransform="matrix(1, 0, 0, -1, 0, 418)" gradientUnits="userSpaceOnUse"><stop offset="0" stop-color="#fbc400"/><stop offset="1" stop-color="#fbcf00"/></linearGradient><linearGradient id="linear-gradient-2" x1="281.82" y1="418" x2="281.82" y2="70" gradientTransform="matrix(1, 0, 0, -1, 0, 418)" gradientUnits="userSpaceOnUse"><stop offset="0" stop-color="#ffeb8c"/><stop offset="1" stop-color="#fbcf00"/></linearGradient></defs><title>Artboard 1</title><path class="cls-1" d="M242.94,338.14a10,10,0,0,1,9.83-8.14h58.1a10,10,0,0,1,9.82,8.14l12.88,68A10,10,0,0,1,323.74,418H239.89a10,10,0,0,1-9.83-11.86Z"/><path class="cls-2" d="M29.27,27A30,30,0,0,1,59.12,0H504.51a30,30,0,0,1,29.85,27l29.12,288a30,30,0,0,1-29.85,33H30A30,30,0,0,1,.16,315Z"/></svg>