<svg id="Layer_1" data-name="Layer 1" xmlns="http://www.w3.org/2000/svg" viewBox="0 0 1296 163"><defs><style>.cls-1{fill:#dc7beb;}.cls-2{fill:silver;}.cls-3{fill:#fbcf00;}</style></defs><title>Artboard 1</title><path class="cls-1" d="M1274,154.85h0a1.41,1.41,0,0,1-.18-2l3.18-3.79a1.41,1.41,0,0,1,2-.17h0a1.42,1.42,0,0,1,.17,2l-3.18,3.79A1.41,1.41,0,0,1,1274,154.85Z"/><path class="cls-1" d="M1272.71,140.41h0a1.4,1.4,0,0,1,2-.17l3.79,3.18a1.41,1.41,0,0,1,.18,2h0a1.41,1.41,0,0,1-2,.17l-3.79-3.18A1.41,1.41,0,0,1,1272.71,140.41Z"/><path class="cls-1" d="M1282.16,145.1h0a1.41,1.41,0,0,1-.18-2l3.18-3.79a1.42,1.42,0,0,1,2-.17h0a1.42,1.42,0,0,1,.17,2l-3.18,3.79A1.4,1.4,0,0,1,1282.16,145.1Z"/><path class="cls-1" d="M1282.46,148.59h0a1.4,1.4,0,0,1,2-.17l3.79,3.18a1.41,1.41,0,0,1,.18,2h0a1.42,1.42,0,0,1-2,.17l-3.79-3.18A1.41,1.41,0,0,1,1282.46,148.59Z"/><rect class="cls-2" x="1165.86" y="104.11" width="3.71" height="2.79" rx="1.39"/><rect class="cls-2" x="1156.57" y="104.11" width="3.71" height="2.79" rx="1.39"/><rect class="cls-2" x="1164.49" y="100.83" width="3.71" height="2.79" rx="1.39" transform="translate(269.34 854.67) rotate(-45)"/><rect class="cls-2" x="1157.92" y="107.39" width="3.71" height="2.79" rx="1.39" transform="translate(262.77 851.95) rotate(-45)"/><rect class="cls-2" x="1161.67" y="108.29" width="2.79" height="3.71" rx="1.39"/><rect class="cls-2" x="1161.67" y="99" width="2.79" height="3.71" rx="1.39"/><rect class="cls-2" x="1164.96" y="106.93" width="2.79" height="3.71" rx="1.39" transform="translate(264.69 856.6) rotate(-45)"/><rect class="cls-2" x="1158.39" y="100.36" width="2.79" height="3.71" rx="1.39" transform="translate(267.41 850.03) rotate(-45)"/><circle class="cls-3" cx="70.56" cy="13" r="6"/></svg>