<svg id="Layer_1" data-name="Layer 1" xmlns="http://www.w3.org/2000/svg" viewBox="0 0 1095 474"><defs><style>.cls-1{fill:#dc7beb;}.cls-2{fill:silver;}.cls-3{fill:#fbcf00;}</style></defs><title>Artboard 1</title><rect class="cls-1" x="14.64" y="8.15" width="7.78" height="2.83" rx="1.41" transform="translate(-0.71 17.61) rotate(-50)"/><rect class="cls-1" x="17.9" y="14.64" width="2.83" height="7.78" rx="1.41" transform="translate(-7.3 21.41) rotate(-50)"/><rect class="cls-1" x="6.46" y="17.9" width="7.78" height="2.83" rx="1.41" transform="translate(-11.1 14.83) rotate(-50)"/><rect class="cls-1" x="8.15" y="6.46" width="2.83" height="7.78" rx="1.41" transform="translate(-4.51 11.03) rotate(-50)"/><rect class="cls-2" x="125.44" y="54.55" width="3.71" height="2.79" rx="1.39"/><path class="cls-2" d="M134.73,55.94h0a1.39,1.39,0,0,1,1.39-1.39h.93a1.39,1.39,0,0,1,1.39,1.39h0a1.39,1.39,0,0,1-1.39,1.39h-.93A1.39,1.39,0,0,1,134.73,55.94Z"/><path class="cls-2" d="M127.34,60.54h0a1.4,1.4,0,0,1,0-2l.66-.66a1.38,1.38,0,0,1,2,0h0a1.4,1.4,0,0,1,0,2l-.66.65A1.39,1.39,0,0,1,127.34,60.54Z"/><path class="cls-2" d="M133.91,54h0a1.4,1.4,0,0,1,0-2l.66-.66a1.4,1.4,0,0,1,2,0h0a1.4,1.4,0,0,1,0,2l-.66.66A1.4,1.4,0,0,1,133.91,54Z"/><path class="cls-2" d="M131.94,49.44h0a1.39,1.39,0,0,1,1.39,1.39v.93a1.39,1.39,0,0,1-1.39,1.39h0a1.39,1.39,0,0,1-1.39-1.39v-.93A1.39,1.39,0,0,1,131.94,49.44Z"/><path class="cls-2" d="M131.94,58.72h0a1.4,1.4,0,0,1,1.39,1.4v.93a1.39,1.39,0,0,1-1.39,1.39h0a1.39,1.39,0,0,1-1.39-1.39v-.93A1.4,1.4,0,0,1,131.94,58.72Z"/><path class="cls-2" d="M127.34,51.34h0a1.4,1.4,0,0,1,2,0L130,52a1.4,1.4,0,0,1,0,2h0a1.4,1.4,0,0,1-2,0l-.66-.66A1.4,1.4,0,0,1,127.34,51.34Z"/><path class="cls-2" d="M133.91,57.91h0a1.38,1.38,0,0,1,2,0l.66.66a1.39,1.39,0,0,1,0,2h0a1.38,1.38,0,0,1-2,0l-.66-.65A1.38,1.38,0,0,1,133.91,57.91Z"/><circle class="cls-3" cx="994.44" cy="467.41" r="6"/></svg>